<mxfile host="app.diagrams.net" modified="2023-04-26T19:59:35.672Z" agent="Mozilla/5.0 (Windows NT 10.0; Win64; x64) AppleWebKit/537.36 (KHTML, like Gecko) Chrome/112.0.0.0 Safari/537.36" version="21.2.2" etag="LqNvwVUKMizyWIgtsSXI" type="github">
  <diagram name="Sayfa -1" id="SMCCc2sEG6Di4SgGL736">
    <mxGraphModel>
      <root>
        <mxCell id="0" />
        <mxCell id="1" parent="0" />
      </root>
    </mxGraphModel>
  </diagram>
</mxfile>
